<svg width="707" height="745" viewBox="0 0 707 745" xmlns="http://www.w3.org/2000/svg"><title>ill</title><path d="M706.226 430.25c-.242-5.246-.62-10.49-1.682-15.667-1.59-7.753-3.26-15.476-6.225-22.85-2.64-6.553-5.76-12.822-10.08-18.486-3.687-4.83-7.988-8.89-13.055-12.245-6.99-4.63-14.602-7.634-22.887-8.616-7.605-.9-14.91.478-21.68 4.228-.178.1-.402.112-.825.222.26-1.047.5-1.87.664-2.71.564-2.908 1.366-5.803 1.596-8.74.457-5.865 1.154-11.687 2.154-17.48.158-.912.26-1.834.36-2.754.492-4.425.952-8.853 1.466-13.275.53-4.55 1.036-9.092.803-13.69-.16-3.15-.442-6.33-.202-9.46.655-8.563-.066-17.057-.965-25.54-.52-4.908-.792-9.848-1.734-14.713-.884-4.555-.407-9.252-1.433-13.822-1.014-4.522-1.572-9.147-2.605-13.665-1.157-5.054-2.67-10.015-3.606-15.14-.91-4.977-2.27-9.882-3.618-14.767-1.593-5.776-3.043-11.6-5.318-17.17-2.64-6.467-5.23-12.955-7.89-19.414-2.38-5.773-4.8-11.53-7.9-16.97-1.042-1.828-2.123-3.656-2.918-5.594-2.61-6.348-6.574-11.906-10.28-17.593-2.93-4.5-6.232-8.77-9.55-13-2.744-3.495-5.732-6.802-8.655-10.155-1.383-1.586-2.874-3.074-4.304-4.62-2.73-2.942-5.37-5.97-8.194-8.82-3.434-3.46-7.04-6.75-10.53-10.155-2.21-2.16-4.352-4.39-6.51-6.603-3.814-3.91-8.11-7.264-12.45-10.543-3.942-2.977-8.117-5.65-12.06-8.627-5.05-3.817-10.563-6.866-15.96-10.124-5.15-3.108-10.614-5.58-16.038-8.103-8.76-4.078-17.912-7.15-27.134-10.004-4.072-1.26-8.13-2.604-12.27-3.603-6.54-1.578-13.147-2.896-19.725-4.332-6.297-1.373-12.717-1.82-19.104-2.497-4.116-.437-8.24-.795-12.362-1.185-5.035-.476-10.064-1.064-15.11-1.386-4.495-.287-9.01-.293-13.514-.388-1.11-.023-2.22.163-3.33.143-5.426-.1-10.852-.364-16.277-.335-8.66.048-17.284.793-25.896 1.662-4.786.483-9.582.91-14.347 1.557-6.974.95-13.868 2.37-20.74 3.884-7.37 1.62-14.648 3.58-21.923 5.587-8.23 2.27-16.306 4.983-24.326 7.856-8.445 3.028-16.426 7.137-24.46 11.1-2.993 1.474-5.888 3.148-8.81 4.762-3.354 1.853-6.73 3.67-10.018 5.633-2.537 1.518-4.915 3.297-7.43 4.85-3.168 1.952-6.12 4.163-8.996 6.528-3.38 2.78-6.956 5.31-10.148 8.342-2.01 1.91-4.38 3.438-6.468 5.277-2.92 2.57-5.82 5.176-8.56 7.933-3.702 3.728-7.288 7.574-10.84 11.448-2.046 2.23-3.932 4.607-5.873 6.934-2.253 2.7-4.606 5.33-6.7 8.148-2.133 2.874-4.527 5.582-6.106 8.844-.104.22-.256.42-.406.615-1.756 2.31-3.57 4.576-5.266 6.93-5.246 7.275-9.887 14.934-14.075 22.862-1.296 2.456-2.362 5.035-3.506 7.57-2.26 5.014-4.526 10.028-6.742 15.06-1.492 3.386-2.915 6.802-4.35 10.21-.72 1.708-1.452 3.412-2.09 5.15-1.083 2.957-2.16 5.918-3.123 8.915-.943 2.94-1.73 5.932-2.602 8.895-1.115 3.795-2.382 7.55-3.336 11.384-1.24 4.972-2.22 10.007-3.34 15.01-.862 3.852-1.79 7.69-2.648 11.545-.55 2.472-1.015 4.96-1.548 7.434-.274 1.266-.757 2.502-.9 3.778-.5 4.422-.943 8.853-1.316 13.29-.7 8.317-1.382 16.64-1.36 24.996.01 4.27-.04 8.542.13 12.805.223 5.62.597 11.237.98 16.85.245 3.577.518 7.16.967 10.716.747 5.942 1.684 11.86 2.47 17.8.754 5.695 1.15 11.44 2.44 17.064.214.93.173 1.92.265 3.09-2.128-.905-3.862-1.695-5.636-2.384-3.645-1.414-7.366-2.435-11.325-2.617-3.435-.16-6.765.416-10.132.852-4.72.61-9.1 2.117-13.345 4.273-2.895 1.47-5.528 3.274-8.14 5.144-4.685 3.353-8.687 7.347-11.53 12.418-.663 1.187-1.396 2.338-2.042 3.535-2.467 4.572-4.975 9.132-6.274 14.218-.92 3.597-1.865 7.185-2.71 10.8-.603 2.587-1.262 5.188-1.537 7.82C1.08 421.602.6 426.848.437 432.097c-.155 4.873-.654 9.75-.086 14.64.78 6.697 1.363 13.416 2.196 20.106.465 3.74 1.252 7.442 1.922 11.156.615 3.407 1.16 6.834 1.935 10.207.65 2.83 1.653 5.577 2.387 8.39 2.143 8.22 4.984 16.19 8.678 23.832 2.015 4.17 4.25 8.237 6.477 12.3.917 1.674 2.173 3.16 3.103 4.826 1.73 3.107 3.79 5.924 6.486 8.268.507.442.883 1.032 1.338 1.536 2.49 2.747 4.81 5.683 7.528 8.182 2.994 2.756 6.373 5.09 9.558 7.642 3.387 2.716 6.95 5.15 10.856 7.073 3.62 1.78 7.363 3.244 11.277 4.192 3.356.813 6.773 1.23 10.245 1.39 7.5.348 14.632-1.027 21.463-4.08.62-.276 1.188-.665 1.803-.953.993-.466 1.37-.378 1.78.538.445 1.002.84 2.035 1.146 3.09.634 2.19 1.12 4.425 1.806 6.598.52 1.636 1.464 3.153 1.853 4.81.556 2.363 1.39 4.57 2.48 6.724 1.228 2.42 2.3 4.916 3.497 7.353 1.164 2.366 2.35 4.725 3.62 7.038.972 1.773 2.128 3.447 3.136 5.205 2.078 3.628 4.022 7.337 6.194 10.91 1.923 3.162 4.13 6.15 6.115 9.277 1.72 2.71 3.3 5.5 5.3 8.032 1.753 2.22 3.282 4.602 5.164 6.742 3.174 3.61 6.11 7.426 9.206 11.106 2.62 3.116 5.318 6.168 7.996 9.236.77.88 1.527 1.784 2.387 2.573 2.778 2.544 5.598 5.043 8.406 7.555 2.396 2.143 4.77 4.315 7.21 6.41 1.352 1.162 2.828 2.183 4.233 3.286 3.055 2.397 6.09 4.82 9.156 7.207.824.64 1.707 1.212 2.59 1.77.833.523 1.727.948 2.554 1.48 2.597 1.67 5.13 3.445 7.775 5.04 3.327 2.006 6.765 3.826 10.103 5.815 5.26 3.133 10.62 6.07 16.116 8.76.934.457 1.89.872 2.85 1.278 2.212.94 4.437 1.845 6.646 2.788 3.58 1.53 7.143 3.1 10.734 4.605 1.073.448 2.246.657 3.324 1.098 3.594 1.477 7.225 2.836 10.973 3.88 2.02.563 4.008 1.24 6.02 1.836 1.767.523 3.53 1.092 5.33 1.48 2.532.543 5.112.868 7.642 1.42 1.784.39 3.517 1.014 5.28 1.508.948.266 1.908.49 2.868.712 2.34.545 4.667 1.148 7.026 1.594 1.696.32 3.452.325 5.147.652 2.05.397 4.055 1.025 6.098 1.472 1.503.326 3.024.625 4.553.757 3.8.323 7.61.552 11.418.806 1.595.107 3.244-.05 4.773.313 5.748 1.365 11.592.425 17.375.89 3.065.246 6.174-.073 9.262-.13 1.91-.033 3.83.052 5.73-.1 3.865-.308 7.723-.73 11.582-1.127 6.082-.63 12.172-1.204 18.244-1.94 4.717-.573 9.417-1.316 14.113-2.063 2.74-.435 5.47-.97 8.183-1.555 3.138-.674 6.262-1.42 9.377-2.193 1.676-.417 3.342-.898 4.973-1.465 1.972-.683 3.875-1.56 5.853-2.224 2.988-1 6.075-1.73 9.01-2.86 5.876-2.265 11.68-4.72 17.51-7.103.914-.373 1.83-.74 2.712-1.178 3.596-1.786 7.185-3.584 10.764-5.404 2.917-1.48 5.903-2.853 8.703-4.53 5.456-3.27 10.92-6.527 15.995-10.397 4.323-3.294 8.773-6.425 13.132-9.677 7.86-5.864 15.03-12.48 21.416-19.93 2.614-3.05 5.176-6.145 7.747-9.234 1.98-2.377 3.956-4.754 5.89-7.167.85-1.06 1.583-2.214 2.378-3.318 1.045-1.454 2.25-2.82 3.118-4.372 1.664-2.966 4.063-5.434 5.504-8.56.844-1.83 2.14-3.453 3.226-5.174.527-.836.962-1.744 1.575-2.51 2.973-3.713 4.772-8.076 6.84-12.284 1.22-2.49 2.2-5.1 3.282-7.66 1.154-2.735 2.413-5.43 3.414-8.22 1.354-3.783 2.426-7.664 3.758-11.454 2.523-7.176 4.998-14.363 6.942-21.723.465-1.756.837-1.922 2.49-1.257 1.835.735 3.607 1.676 5.493 2.23 5.082 1.487 10.33 1.893 15.597 1.894 4.637.002 9.247-.543 13.87-.917 5.638-.453 10.706-2.427 15.685-4.748 8.144-3.795 14.81-9.673 21.017-15.988 5.876-5.978 10.633-12.885 14.38-20.4 2.98-5.975 5.818-12.028 8.492-18.145 1.508-3.448 2.685-7.06 3.782-10.666 1.493-4.905 2.906-9.846 4.09-14.833.84-3.537 1.29-7.172 1.836-10.775.77-5.077 1.66-10.148 2.154-15.254.63-6.517.956-13.067 1.337-19.606.198-3.39.45-6.8.293-10.184zm-24.138 36.52c-1.75 10.138-4.378 20.044-7.677 29.772-.912 2.69-2.104 5.288-3.256 7.887-1.353 3.05-2.716 6.103-4.234 9.074-1.547 3.026-3.235 5.986-4.954 8.92-2.482 4.24-5.41 8.122-9.075 11.45-3.823 3.475-8.008 6.416-12.604 8.73-1.858.94-3.92 1.516-5.944 2.072-2.793.77-5.602 1.654-8.463 1.972-4.916.544-9.832.55-14.75-.592-3.885-.903-7.432-2.306-10.524-4.8-1.925-1.553-3.77-3.206-5.658-4.807-.565-.48-1.178-.91-1.71-1.425-2.537-2.45-5.52-2.43-8.662-1.623-2.136.55-3.53 1.836-4.365 3.906-1.066 2.646-2.03 5.294-2.564 8.118-.493 2.608-1.405 5.136-1.894 7.744-1.165 6.22-3.34 12.157-4.924 18.26-.45 1.73-1.095 3.415-1.693 5.106-1.65 4.66-3.205 9.358-5.02 13.955-1.838 4.657-3.87 9.242-5.963 13.79-.925 2.013-2.167 3.885-3.34 5.774-1.206 1.94-2.552 3.79-3.75 5.732-3.052 4.945-5.954 9.987-9.113 14.864-2.15 3.316-4.548 6.48-6.98 9.598-2.205 2.824-4.592 5.507-6.922 8.23-3.946 4.61-8.106 9.006-12.713 12.974-1.54 1.328-2.885 2.89-4.474 4.153-2.756 2.19-5.64 4.22-8.458 6.333-3.16 2.37-6.266 4.812-9.47 7.122-3.958 2.853-7.89 5.744-12.24 8.014-2.408 1.256-4.684 2.763-7.077 4.05-2.772 1.494-5.594 2.9-8.42 4.293-3.812 1.88-7.61 3.792-11.49 5.522-2.247 1.003-4.625 1.737-6.976 2.488-5.71 1.82-11.41 3.674-17.166 5.337-4.928 1.424-9.914 2.655-14.9 3.863-2.335.567-4.738.854-7.1 1.314-1.575.305-3.127.718-4.7 1.033-5.173 1.03-10.43 1.22-15.675 1.544-5.307.327-10.606.765-15.91 1.126-.92.064-1.85-.045-2.775-.034-4.76.055-9.52.185-14.28.164-4.205-.018-8.407-.23-12.61-.303-2.04-.034-4.084.022-6.122.1-4.292.162-8.49-.622-12.68-1.327-4.447-.746-8.852-1.75-13.283-2.6-1.64-.313-3.326-.4-4.952-.767-3.186-.72-6.367-1.48-9.51-2.372-4.22-1.196-8.43-2.44-12.586-3.838-3.513-1.18-6.95-2.584-10.407-3.928-4.953-1.926-9.926-3.807-14.83-5.858-3.762-1.574-7.475-3.285-11.127-5.102-5.034-2.506-9.972-5.204-14.984-7.757-5.463-2.78-10.73-5.896-15.845-9.257-4.183-2.75-8.264-5.654-12.325-8.58-1.804-1.297-3.378-2.913-5.178-4.217-3.78-2.74-7.056-5.998-10.19-9.43-2.84-3.105-5.887-6.028-8.59-9.243-4.143-4.923-8.14-9.972-12.068-15.068-4.194-5.44-8.31-10.94-12.33-16.508-3.593-4.98-6.392-10.444-9.203-15.892-.823-1.593-1.642-3.2-2.626-4.697-2.223-3.386-3.77-7.09-5.372-10.783-2.394-5.516-4.344-11.18-6.087-16.926-1.148-3.79-2.393-7.553-3.76-11.268-1.127-3.067-2.378-6.084-4.4-8.742-1.465-1.925-3.184-3.068-5.633-2.927-2.775.16-5.16 1.155-6.948 3.367-1.13 1.397-2.26 2.792-3.393 4.182-2.604 3.187-5.957 4.97-10.06 5.278-3.384.254-6.78.67-10.16.6-3.996-.084-8.082-.11-11.843-1.755-2.368-1.037-4.58-2.417-6.903-3.567-4.25-2.103-7.646-5.396-11.35-8.232-2.073-1.586-3.617-3.866-5.374-5.857-.734-.83-1.398-1.723-2.095-2.588-3.046-3.777-5.368-8.01-7.59-12.29-2.736-5.27-5.5-10.534-7.963-15.93-1.48-3.246-2.53-6.706-3.56-10.134-1.547-5.15-2.98-10.338-4.31-15.55-.548-2.142-.75-4.38-1.023-6.585-.397-3.188-.69-6.39-1.082-9.578-.21-1.717-.588-3.413-.788-5.13-.3-2.58-.523-5.167-.748-7.754-.482-5.517.15-10.994.598-16.478.234-2.833.18-5.698.545-8.51.623-4.838 1.216-9.69 2.974-14.31 2.073-5.442 5.108-10.282 8.83-14.714.71-.843 1.596-1.55 2.45-2.26 1.376-1.152 2.85-2.192 4.18-3.392 1.87-1.69 4.054-2.907 6.337-3.785 1.928-.742 4.073-1.06 6.15-1.24 6.515-.555 12.734.72 18.444 3.873 4.273 2.357 7.38 5.938 9.536 10.357 1.913 3.92 3.16 8.052 4.29 12.242 1.58 5.852 3.046 11.745 4.915 17.505 1.51 4.65 3.67 9.077 6.767 12.93 1.438 1.788 3.162 3.315 5.262 4.348 2.448 1.205 4.965.972 7.38.083 1.58-.583 2.29-2.173 2.915-3.67 1.45-3.49 1.712-7.198 1.943-10.905.59-9.51 1.304-19.01 1.39-28.548.046-5.198.334-10.395.6-15.588.366-7.106.717-14.212 1.26-21.304.335-4.37.902-8.734 1.568-13.07.836-5.436 1.79-10.86 2.868-16.253.64-3.21 1.634-6.347 2.44-9.524.44-1.737.773-3.5 1.24-5.23.93-3.457 1.823-6.93 2.91-10.34 1.444-4.526 3.018-9.013 4.608-13.49 1.446-4.068 2.95-8.113 4.497-12.144 1.61-4.2 3.23-8.396 4.976-12.54 1.486-3.527 3.13-6.99 4.757-10.46 2.884-6.152 5.937-12.23 8.677-18.447 3.203-7.265 7.42-13.967 11.214-20.903 2.424-4.434 5.26-8.646 7.942-12.937 1.438-2.302 2.852-4.628 4.438-6.828 2.418-3.352 4.922-6.646 7.487-9.89 2.988-3.778 6.036-7.51 9.144-11.193 1.714-2.03 3.576-3.94 5.42-5.857 2.313-2.404 4.642-4.797 7.034-7.123 1.322-1.287 2.795-2.42 4.186-3.642 2.178-1.91 4.283-3.91 6.53-5.735 2.784-2.257 5.65-4.41 8.536-6.536 2.587-1.907 5.21-3.773 7.888-5.545 1.802-1.19 3.676-2.303 5.618-3.245 3.222-1.56 6.465-3.11 9.812-4.365 2.345-.88 4.876-1.26 7.326-1.864.544.912.3 1.618-.1 2.233-1.17 1.815-2.25 3.72-3.634 5.36-3.508 4.15-7.06 8.276-10.797 12.22-2.42 2.55-5.207 4.75-7.81 7.13-3.283 3.002-6.6 5.97-9.79 9.068-1.228 1.192-2.2 2.66-3.196 4.068-.796 1.12-.288 3.946.863 4.942.597.52 1.284 1 2.012 1.293 2.063.833 4.167 1.477 6.46 1.42 2.463-.062 4.93.067 7.398.107.432.006.88.054 1.295-.04 4.635-1.044 9.41-1.458 13.908-3.15 1.727-.648 3.565-.99 5.32-1.573 4.388-1.46 8.8-2.864 13.124-4.505 4.27-1.623 8.47-3.45 12.657-5.29 5.772-2.535 11.512-5.146 17.25-7.76 4.046-1.845 8.09-3.702 12.092-5.64 3.34-1.618 6.623-3.352 9.92-5.054 7.143-3.686 14.374-7.21 21.387-11.125 6.96-3.887 13.697-8.18 20.543-12.275.776-.465 1.617-.823 2.427-1.23l.504.288c-.047.505.017 1.05-.154 1.508-2.11 5.66-5.413 10.514-9.92 14.548-1.61 1.442-3.124 2.997-4.763 4.407-2.436 2.095-4.942 4.11-7.425 6.153-1.05.863-2.102 1.724-3.175 2.558-1.668 1.294-1.815 3.328-.728 5.326 1.4 2.574 3.732 3.753 6.465 4.134 2.316.322 4.68.58 7.007.474 4.257-.195 8.47-.847 12.627-1.86 3.182-.775 6.403-1.39 9.61-2.07 5.815-1.24 11.512-2.885 17.072-5 3.292-1.252 6.634-2.383 9.895-3.712 4.98-2.032 9.93-4.145 14.86-6.3 4.644-2.033 9.266-4.12 13.855-6.267 2.963-1.387 5.843-2.954 8.782-4.392 1.05-.514 2.152-.932 3.258-1.31 2.222-.757 4.43-1.606 6.708-2.133 1.844-.426 3.84-.81 5.672-.544 2.597.382 5.33.677 7.66 2.046 2.974 1.75 5.872 3.635 8.737 5.56 2.756 1.85 5.49 3.75 8.125 5.767 2.24 1.713 4.357 3.593 6.475 5.46 1.808 1.592 3.598 3.212 5.29 4.925 1.947 1.967 3.795 4.032 5.65 6.087 3.81 4.224 7.647 8.424 11.37 12.724 1.61 1.862 2.97 3.945 4.43 5.935 1.428 1.94 2.907 3.843 4.238 5.846 1.263 1.9 2.315 3.94 3.55 5.863 1.767 2.753 3.612 5.455 5.43 8.175 1.166 1.743 2.404 3.44 3.503 5.224 1.26 2.043 2.385 4.168 3.596 6.24 1.027 1.757 2.03 3.532 3.157 5.22 1.682 2.513 3.19 5.105 4.54 7.818 1.76 3.537 3.822 6.92 5.617 10.44 1.623 3.188 3.118 6.444 4.566 9.715 1.898 4.292 3.767 8.597 5.517 12.95 2.63 6.537 5.366 13.043 7.195 19.867 1.488 5.554 3.06 11.098 4.254 16.717 1.48 6.944 2.626 13.96 3.885 20.95.745 4.14 1.468 8.283 2.13 12.437.322 2.012.463 4.05.71 6.075.27 2.204.58 4.403.85 6.606.09.734.095 1.478.168 2.215.43 4.306.868 8.61 1.3 12.92.272 2.697.528 5.398.814 8.096.23 2.148.555 4.288.734 6.44.49 5.92.94 11.84 1.373 17.762.584 8.023 1.195 16.044 1.678 24.075.24 4.007.14 8.034.35 12.044.203 3.82.042 7.67.923 11.436.37 1.58.8 3.1 1.9 4.368 1.137 1.312 2.576 1.917 4.263 1.882 3.445-.074 6.32-1.334 8.647-3.98 2.932-3.332 5.328-6.946 6.83-11.15 1.33-3.718 2.895-7.36 4.114-11.112 1.085-3.344 1.69-6.845 2.773-10.19 1.24-3.818 2.76-7.548 4.19-11.304 2.11-5.545 6.022-9.734 10.383-13.55 1.198-1.048 2.51-2.025 3.916-2.755 1.07-.553 2.394-.58 3.556-.982 5.734-1.99 11.22-.632 16.683 1.146 3.944 1.283 7.5 3.18 10.327 6.314.988 1.095 2.235 1.955 3.243 3.036 3.253 3.48 5.455 7.644 7.396 11.934.832 1.84 1.16 3.91 1.998 5.746 1.922 4.21 2.88 8.678 3.476 13.195.46 3.482.452 7.035.512 10.56.106 6.313.185 12.628.124 18.94-.052 5.58-.81 11.094-1.758 16.594zM509.18 344.535c-1.8-2.113-3.646-4.186-5.467-6.282-3.665-4.216-7.994-7.63-13.042-9.965-5.516-2.557-11.28-4.456-17.44-4.724-2.158-.093-4.326-.15-6.48-.03-1.96.11-3.93.38-5.863.757-5.367 1.044-10.546 2.685-15.424 5.2-6.347 3.273-10.967 8.385-14.952 14.15-.59.858-1.073 1.824-1.435 2.803-.527 1.422-.32 2.848.64 4.03.94 1.16 2.28 1.09 3.604.84.3-.058.61-.15.872-.303 1.593-.935 3.28-1.754 4.732-2.874 2.268-1.748 4.63-3.306 7.226-4.498.5-.23 1.383-.42 1.648-.168.336.32.37 1.14.268 1.697-.236 1.276-.67 2.512-.956 3.78-.725 3.194-1.63 6.357-1.67 9.67-.012.866-.14 1.727-.175 2.59-.135 3.396-.488 6.804-.316 10.185.2 3.942.688 7.893 1.39 11.78.508 2.836 1.334 5.674 2.432 8.34 1.56 3.783 4.408 6.692 7.453 9.356.966.847 2.054 1.665 3.228 2.145 6.228 2.55 12.584 3.133 19.017.777 2.803-1.027 5.484-2.323 7.498-4.64 3.457-3.978 5.862-8.57 7.482-13.54 1.987-6.1 2.407-12.493 3.144-18.82.028-.24-.015-.49-.024-.74-.067-2.1-.083-4.204-.213-6.3-.232-3.703-.41-7.416-1.643-10.975-.316-.91-.692-1.856-.29-2.985 1.205.04 2.116.65 2.987 1.338 2.764 2.183 5.5 4.402 8.288 6.552 1.078.83 2.276 1.462 3.687 1.625 2.292.266 4.06-1.68 3.31-3.866-.84-2.452-1.797-4.887-3.515-6.904zm-228.684-1.18c-1.815-2.004-3.505-4.084-5.6-5.873-3.372-2.88-6.964-5.31-10.9-7.317-5.484-2.796-11.243-4.493-17.406-4.77-3.542-.16-7.04.25-10.55.67-3.783.452-7.437 1.382-10.91 2.88-9.77 4.22-17.497 10.863-23.15 19.897-.943 1.504-1.357 3.173-1.59 4.895-.112.816-.04 1.626.723 2.17 1.1.784 2.314 1.35 3.646.816 1.306-.522 2.723-1.033 3.747-1.94 2.528-2.234 5.497-3.764 8.27-5.6.715-.474 1.523-.83 2.33-1.132 1.078-.403 1.523-.09 1.473 1.07-.037.857-.09 1.78-.427 2.55-1.924 4.41-1.617 9.13-1.69 13.716-.067 4.17.65 8.37 1.222 12.526.36 2.62 1.146 5.178 1.648 7.783.855 4.453 3.04 8.22 6.033 11.51 2.568 2.822 5.707 4.82 9.338 6.167 3.51 1.3 7.04 1.763 10.737 1.386 2.75-.28 5.226-1.28 7.756-2.346 3.11-1.312 5.673-3.126 7.797-5.737 2.424-2.98 4.228-6.227 5.09-9.976 1.127-4.9 1.576-9.893 1.878-14.895.182-3.015.27-6.056.108-9.07-.206-3.818-.373-7.662-1.544-11.367-.324-1.022-.77-2.106-.264-3.256 1.15-.374 2.114.07 3.02.583 2.098 1.192 4.133 2.493 6.253 3.638.958.516 2.046 1.013 3.103 1.08 2.743.178 3.88-1.99 3.138-4.082-.778-2.183-1.707-4.238-3.278-5.973zm115.832 218.98c-1.012-3.435-1.834-6.983-3.33-10.208-2.305-4.967-4.684-9.927-8.316-14.18-2.29-2.684-4.864-4.907-7.996-6.435-2.1-1.027-4.34-1.766-6.502-2.67-6.45-2.702-13.13-3.202-19.98-2.115-.242.037-.49.008-.736.017-.917.034-1.85-.03-2.747.126-2.007.348-4.01.747-5.99 1.23-3.196.778-6.33 1.806-9.162 3.493-5.257 3.13-9.84 7.004-13.258 12.185-3.042 4.61-5.745 9.38-7.78 14.52-1.414 3.567-2.854 7.14-3.297 10.98-.347 3-.457 6.024-.728 9.812l.588 5.47c.666 6.195 3.117 11.668 6.854 16.577 2.45 3.218 5.596 5.684 8.952 7.92 2.91 1.94 5.955 3.55 9.353 4.398 3.537.884 7.078 1.77 10.65 2.486 2.23.447 4.516.696 6.788.817 2.467.133 4.948.074 7.42-.012 2.76-.096 5.548.072 8.264-.663.65-.175 1.322-.29 1.99-.367 5.946-.685 11.458-2.52 16.31-6.112 4.87-3.607 9.193-7.69 11.555-13.457.092-.224.275-.412.385-.632 1.533-3.037 3.152-6.04 3.39-9.544.194-2.89.52-5.778.617-8.675.05-1.468-.113-2.988-.46-4.417-.852-3.536-1.806-7.05-2.834-10.542zm-12.538 22.24c-.46 1.977-1.02 3.975-1.876 5.805-1.064 2.278-2.938 3.987-5.065 5.286-2.205 1.348-4.564 2.44-6.805 3.73-2.486 1.43-5.25 1.778-7.997 2.16-2.07.29-4.165.392-6.25.578l-.02-.288c-1.66.113-3.327.39-4.974.297-1.82-.1-3.642-.44-5.42-.856-2.22-.52-4.388-1.248-6.59-1.84-4.627-1.24-8.598-3.724-12.267-6.673-1.16-.932-2.073-2.315-2.757-3.666-3.126-6.17-3.344-12.59-1.905-19.306 1.273-5.945 3.85-11.186 7.32-16.037 2.03-2.833 4.654-5.12 7.71-6.837 2.1-1.178 4.21-2.346 6.384-3.378 4.856-2.31 9.93-3.11 15.31-2.317 3.043.448 5.918 1.245 8.633 2.647 3.364 1.74 5.952 4.373 8.31 7.277 2.718 3.348 4.92 7.066 6.15 11.133 1.224 4.052 1.778 8.325 2.407 12.535.483 3.238.445 6.537-.3 9.75zm127.782-325.117c-3.876-3.776-8.4-6.72-12.882-9.712-3.89-2.596-8.102-4.545-12.538-5.91-4.184-1.288-8.383-2.635-12.845-2.736-2.596-.06-5.187-.313-7.78-.48 0 .03-.003.056-.004.083-1.176 0-2.358-.077-3.526.014-4.586.357-9.084 1.26-13.45 2.676-2.7.875-5.385 1.906-7.908 3.197-3.466 1.772-6.723 3.915-9.827 6.296-1.67 1.28-2.845 2.846-3.85 4.647-1.585 2.845-.125 7.465 4.246 7.88 2.725.26 5.434-.29 7.996-1.25 3.643-1.367 7.177-3.048 10.868-4.253 4.103-1.338 8.273-2.575 12.67-2.614 2.405-.022 4.843-.404 7.207-.127 6.453.757 12.784 2.064 18.866 4.527 4.28 1.733 8.155 4.114 11.98 6.614 2.067 1.352 3.962 2.974 6.058 4.278 1.992 1.24 4.18 2.153 6.567 2.348 2.48.2 5.256-1.66 4.32-5.308-1.03-4.023-3.255-7.334-6.168-10.173zm-234.065-7.913c-1.25-1.085-2.68-1.99-4.108-2.845-4.44-2.66-9.356-4.17-14.252-5.706-4.522-1.42-9.178-1.917-12.115-1.903-6.802.278-11.783.737-16.665 1.968-3.162.8-6.422 1.28-9.303 2.967-1.6.94-3.253 1.794-4.83 2.77-2.623 1.62-5.347 3.125-7.765 5.016-2.816 2.203-5.45 4.666-7.974 7.204-2.543 2.56-4.543 5.536-5.695 9.02-.525 1.588-.516 3.117-.038 4.73.292.983.814 1.573 1.743 1.64 1.338.1 2.763.29 4.016-.053 1.643-.45 3.244-1.235 4.705-2.13 3.844-2.36 7.563-4.924 11.407-7.284 4.692-2.88 9.533-5.475 14.916-6.888 1.612-.423 3.166-1.132 4.797-1.4 5.924-.97 11.89-1.948 17.88-.686 3.497.737 6.988 1.628 10.365 2.792 4.143 1.427 8.14 3.28 12.253 4.803 1.358.505 2.885.785 4.332.77 2.613-.028 4.383-2.124 4.375-4.74-.003-1.186-.53-2.137-1.148-3.076-1.83-2.785-4.426-4.823-6.895-6.967zm40.022 213.396c1.987.074 4.025-.072 5.67-1.345 1.46-1.127 2.83-2.394 4.115-3.722 2.03-2.1 4.103-4.197 6.716-5.497 3.424-1.704 7.003-3.097 10.877-3.482.49-.048.98-.117 1.467-.19 4.57-.702 9.152-.687 13.634.4 3.41.824 6.72 2.07 10.065 3.152 2.016.654 3.856 1.628 5.566 2.91 2.72 2.037 5.516 3.975 8.292 5.94.604.428 1.236.83 1.893 1.173 1.465.765 2.963 1 4.65.65 2.74-.568 3.514-2.363 2.75-4.95-1.443-4.883-4.38-8.81-7.83-12.403-3.56-3.71-7.32-7.18-11.822-9.773-3.3-1.904-6.82-3.223-10.524-3.922-2.723-.513-5.537-.505-8.294-.855-6.27-.798-12.216.48-17.934 2.882-2.198.924-4.22 2.3-6.25 3.583-2.727 1.73-5.23 3.744-7.22 6.327-1.473 1.913-2.966 3.81-4.415 5.74-1.764 2.35-2.876 5.045-3.938 7.752-.22.56-.23 1.204-.338 1.81.016 2.436.896 3.746 2.867 3.82zM69.15 482.75c-1.584-3.717-2.24-7.71-3.127-11.613-.627-2.757-.83-5.62-1.086-8.45-.19-2.09-.074-4.208-.246-6.302-.32-3.886-.492-7.752-.072-11.653.242-2.25.442-4.53-.147-6.82-.732-2.85-3.382-4.103-6.007-2.923-2.436 1.094-3.82 3.05-4.693 5.45-1.5 4.12-2.038 8.393-1.888 14.568.19 3.06.183 7.93.966 12.792 1.14 7.077 2.073 14.162 4.72 20.897 1.522 3.87 3.2 7.64 5.466 11.13 1.86 2.87 4.333 5.05 7.433 6.515 2.88 1.363 5.72-.463 5.808-3.663.08-3-.846-5.72-2.038-8.394-1.712-3.838-3.44-7.67-5.087-11.536zm578.992-51.445c-2.196-2.313-4.885-2.04-6.355.796-.36.695-.68 1.502-.698 2.265-.073 2.96-.18 5.937.03 8.884.4 5.665-.086 11.258-1.12 16.8-.745 4.007-1.93 7.93-2.658 11.937-1.234 6.778-3.804 13.015-7.1 19.01-.678 1.233-1.327 2.57-1.566 3.933-.214 1.22-.06 2.61.32 3.803.606 1.903 3.255 2.623 5.57 1.888 3.157-1.003 5.52-3.075 7.41-5.623 3.454-4.65 5.9-9.812 7.585-15.384 1.084-3.576 1.657-7.227 2.287-10.874.514-2.98.87-5.992 1.14-9.003.225-2.518.22-5.057.316-7.586.23-4.04-.113-8.026-.877-11.997-.642-3.35-1.9-6.34-4.284-8.848z" fill="#000" fill-rule="evenodd"/></svg>